FILE "/home/andy/proj/fullmoon-errata/music/concepts2.bin" MOTOROLA
TITLE "Audio disc (12 Aug 23)"
TRACK 01 AUDIO
	INDEX 01 00:00:00
TRACK 02 AUDIO
	INDEX 01 01:43:49
TRACK 03 AUDIO
	INDEX 01 04:07:06
TRACK 04 AUDIO
	INDEX 01 05:47:12
TRACK 05 AUDIO
	INDEX 01 06:52:41
TRACK 06 AUDIO
	INDEX 01 09:11:49
TRACK 07 AUDIO
	INDEX 01 11:55:19
TRACK 08 AUDIO
	INDEX 01 14:14:21
TRACK 09 AUDIO
	INDEX 01 15:54:64
TRACK 10 AUDIO
	INDEX 01 18:07:55
TRACK 11 AUDIO
	INDEX 01 19:21:22
TRACK 12 AUDIO
	INDEX 01 20:50:12
TRACK 13 AUDIO
	TITLE "one-hundred-wheels.mp3"
	INDEX 01 22:13:29
TRACK 14 AUDIO
	INDEX 01 23:54:60
TRACK 15 AUDIO
	INDEX 01 25:29:01
TRACK 16 AUDIO
	INDEX 01 27:11:06
TRACK 17 AUDIO
	INDEX 01 30:15:59
TRACK 18 AUDIO
	INDEX 01 32:14:23
TRACK 19 AUDIO
	INDEX 01 33:37:52
TRACK 20 AUDIO
	INDEX 01 35:13:56
TRACK 21 AUDIO
	INDEX 01 36:30:41
TRACK 22 AUDIO
	INDEX 01 37:37:59
